<?xml version="1.0" encoding="UTF-8" standalone="no"?><!DOCTYPE svg PUBLIC "-//W3C//DTD SVG 1.1//EN" "http://www.w3.org/Graphics/SVG/1.1/DTD/svg11.dtd"><svg width="270" height="85" viewBox="0 0 270 85" version="1.1" xmlns="http://www.w3.org/2000/svg" xmlns:xlink="http://www.w3.org/1999/xlink" xml:space="preserve" xmlns:serif="http://www.serif.com/" style="fill-rule:evenodd;clip-rule:evenodd;stroke-linejoin:round;stroke-miterlimit:2;"><path d="M257.752,51.381l-0,24.8c-0,2.73 0.819,4.43 3.318,4.43c2.583,0 3.7,-1.764 3.7,-4.955l-0,-5.249l2.814,-0l-0,6.131c-0,5.459 -2.961,7.9 -9.449,7.9c-5.543,-0 -9.68,-2.2 -9.68,-8.189l-0,-24.868l-4.871,-0l0,-2.814c8.042,-1.7 10.415,-6.047 11.822,-12.851l2.352,-0l-0,12.557l9.6,-0l-0,3.108l-9.606,-0Zm-39.644,32.19l-0,-14.026l2.814,0c0.819,6.047 3.024,11.822 9.533,11.822c3.318,0 5.543,-2.142 5.543,-5.249c0,-7.6 -18.016,-5.1 -18.016,-16.987c-0.001,-0.072 -0.002,-0.143 -0.002,-0.215c0,-6.324 5.204,-11.529 11.529,-11.529c0.119,0 0.239,0.002 0.358,0.006c5.018,-0 7.9,2.52 8.567,2.52c0.441,-0 0.525,-0.672 0.882,-1.617l2.584,-0l0,11.969l-2.814,-0c-1.26,-5.312 -3.759,-9.743 -8.483,-9.743c-2.73,-0 -4.955,1.617 -4.955,4.724c0,7.6 18.6,3.99 18.6,16.84c0,7.685 -5.837,12.41 -13.732,12.41c-4.368,-0 -7.832,-2.667 -8.714,-2.667c-0.882,-0 -0.966,1.176 -1.323,1.764l-2.373,-0.021l0.002,-0.001Zm-18.394,-1.932c3.108,-0 5.312,-4.724 5.312,-15.727c-0,-11.003 -2.2,-15.727 -5.312,-15.727c-3.112,0 -5.314,4.724 -5.314,15.727c0,11.003 2.228,15.727 5.314,15.727Zm-0,2.814c-8.861,-0 -15.811,-8.126 -15.811,-18.541c-0,-10.415 6.95,-18.541 15.811,-18.541c8.861,-0 15.811,8.126 15.811,18.541c-0,10.415 -6.95,18.541 -15.811,18.541Zm-34.982,-27.024l1.47,-0c7.6,-0 9.3,-5.018 9.3,-10.625c-0,-6.194 -2.289,-10.919 -6.635,-10.919c-2.583,-0 -4.137,1.029 -4.137,4.347l-0,17.2l0.002,-0.003Zm-16.84,26.142l-0,-3.108c5.165,-0 6.341,-1.26 6.341,-4.284l-0,-36.031c-0,-3.024 -1.176,-4.284 -6.341,-4.284l-0,-3.108l24.357,-0c11.213,-0 15.055,6.278 15.055,13.733c-0,9.6 -5.4,14.026 -15.5,14.026l-7.1,0l-0,15.666c-0,3.024 1.176,4.284 6.656,4.284l-0,3.108l-23.468,-0.002Zm-54.405,0.024l-0,-2.838c3.906,-0.231 5.543,-0.735 5.543,-3.7l-0,-25.676l-5.984,-0l-0,-3.108l5.984,-0l-0,-5.165c-0,-7.538 3.843,-11.528 11.969,-11.528c6.572,-0 10.415,2.583 10.415,7.832c-0,3.108 -1.848,5.165 -4.662,5.165c-0.11,0.008 -0.22,0.013 -0.33,0.013c-2.383,-0 -4.344,-1.961 -4.344,-4.344c0,-0.111 0.005,-0.221 0.013,-0.331c-0.006,-0.086 -0.009,-0.173 -0.009,-0.259c0,-2.128 1.724,-3.892 3.852,-3.941c-0.378,-0.819 -1.407,-1.323 -2.877,-1.323c-3.255,0 -4.725,1.617 -4.725,5.312l-0,8.567l7.307,0l-0,3.11l-7.307,-0l-0,25.7c-0,2.961 1.617,3.465 6.719,3.7l-0,2.814l-21.564,-0Zm-18.31,-0.024l-0,-2.814c3.255,-0.231 4.871,-0.735 4.871,-3.7l-0,-37.5c-0,-2.961 -1.617,-3.465 -4.871,-3.7l-0,-2.667l14.173,-0.441l-0,44.305c-0,2.961 1.617,3.465 4.871,3.7l-0,2.814l-19.044,0l-0,0.003Zm-14.11,-1.932c3.108,-0 5.312,-4.724 5.312,-15.727c-0,-11.003 -2.2,-15.727 -5.312,-15.727c-3.112,0 -5.312,4.724 -5.312,15.727c-0,11.003 2.204,15.727 5.312,15.727Zm-0,2.814c-8.861,-0 -15.811,-8.126 -15.811,-18.541c-0,-10.415 6.95,-18.541 15.811,-18.541c8.861,-0 15.811,8.126 15.811,18.541c-0,10.415 -6.95,18.541 -15.811,18.541Zm-23.181,-32.042l-2.668,0c-1.029,-6.95 -3.4,-17.281 -11.885,-17.281c-5.984,-0 -9.533,7.391 -9.533,23.035c-0,13.732 2.436,23.034 8.189,23.034c4.64,0 6.341,-3.612 6.341,-10.184c-0,-8.567 -1.554,-9.449 -7.16,-9.449l-0,-3.108l23.413,-0l-0,3.108c-4.577,-0 -5.753,1.26 -5.753,4.284l-0,17.721l-2.289,-0l-3.171,-3.255c-3.172,2.78 -7.227,4.351 -11.444,4.431c-10.184,-0 -19.927,-9.89 -19.927,-26.583c-0,-15.5 9.743,-26.583 20.6,-26.583c6.131,-0 9.533,3.843 10.331,3.843c0.588,0 0.966,-0.525 2.289,-2.667l2.667,0l-0,19.654Z" style="fill:#fff;fill-rule:nonzero;"/><path d="M122.044,78.258c0.065,-0.189 0.173,-0.36 0.315,-0.5c0.147,-0.105 -0.462,-0.42 -0.315,-0.462c0.1,-0.042 0.924,-0.21 1.323,-0.315c0.567,0.651 0.987,1.176 0.987,1.176c0.966,0 2.856,-1.323 5.249,-4.242c2.394,-2.9 7.853,-9.638 7.853,-9.638l0.21,0.756c0,0 0.042,5.564 0.546,6.992c0.606,1.861 0.952,3.797 1.029,5.753c-0.091,0.468 0.106,0.948 0.5,1.218c0.394,0.27 0,0.252 -0.4,0.672c-0.252,0.252 -0.063,0.651 0.1,0.9c-0.168,0.283 -0.275,0.598 -0.315,0.924c-0.105,0.714 -0.126,1.2 0.378,1.3c0.41,0.04 0.813,0.132 1.2,0.273c1.021,0.545 2.161,0.826 3.318,0.819c0.882,0.045 1.766,0.031 2.646,-0.042c0.336,-0.189 0.5,-1.281 0.4,-1.827c-0.105,-0.567 -0.567,-0.5 -0.861,-1.281c-0.154,-0.475 -0.358,-0.933 -0.609,-1.365l0.042,0c0,0 0.42,-1.47 0.5,-2.1c0.105,-0.609 -0.462,-10.457 -0.462,-11.066c-0.382,-2.067 -0.894,-4.108 -1.533,-6.11c-0.672,-2.247 -1.386,-5.606 -1.386,-5.606c0.461,-3.205 0.651,-6.443 0.567,-9.68c-0.081,-2.687 -0.461,-5.356 -1.134,-7.958c-0.013,-0.096 -0.057,-0.184 -0.126,-0.252c0.714,-0.588 2.058,-1.785 2.163,-2.6c0.022,-0.928 -0.148,-1.85 -0.5,-2.709c0.387,-1.606 0.09,-3.303 -0.819,-4.682c-1.235,-2.142 -2.275,-4.391 -3.108,-6.719c-0.042,-0.5 0.042,-4.137 0.105,-4.493c0.128,-0.489 0.295,-0.966 0.5,-1.428c-0.423,-0.213 -0.857,-0.402 -1.3,-0.567c-0.793,-1.317 -1.737,-2.536 -2.814,-3.633c0.425,-0.511 0.74,-1.104 0.924,-1.743c0.357,-1.239 -0.084,-1.449 -0.084,-1.449c-1.122,-0.139 -2.255,-0.16 -3.381,-0.063c-0.683,-0.833 -1.458,-1.587 -2.31,-2.247c-0.9,-0.609 -2.877,-0.483 -3.843,-0.252c-0.23,-0.108 -0.442,-0.249 -0.63,-0.42c-0.323,-0.27 -0.675,-0.502 -1.05,-0.693c-0.023,-0.389 -0.109,-0.772 -0.252,-1.134c-0.149,-0.568 -0.472,-1.074 -0.924,-1.449c-0.269,-0.178 -0.578,-0.287 -0.9,-0.315l-0.084,0c-0.378,0.042 -0.882,0.609 -0.882,0.609c-0.213,-0.091 -0.441,-0.141 -0.672,-0.147c-0.267,-0.046 -0.542,0.023 -0.756,0.189c-0.21,0.126 -0.63,0.147 -0.882,0.315c-0.252,0.147 -0.252,0.63 -0.252,0.63c0,0 -0.294,0.1 -0.5,0.21c-0.231,0.126 -0.462,0.672 -0.462,0.672c-0.117,0.109 -0.244,0.207 -0.378,0.294c-0.279,0.133 -0.447,0.427 -0.42,0.735c0.043,0.293 0.135,0.577 0.273,0.84c-10.142,7.937 -20.7,20.515 -20.7,20.515c-0.446,-0.06 -0.888,0.156 -1.113,0.546c-1.008,1.365 -0.546,3.948 0.252,4.871c0.798,0.923 1.911,1.785 3.087,1.365c1.176,-0.441 1.176,-2.352 0.546,-4.137c-0.376,-1.075 -1.13,-1.978 -2.121,-2.541c6.313,-7.372 13.331,-14.11 20.955,-20.117c0.291,0.35 0.657,0.63 1.071,0.819c0.378,0.042 0.609,-0.126 1.3,-0.147c0.693,-0.042 1.344,-0.1 1.344,-0.1c0.22,0.191 0.404,0.418 0.546,0.672c0.175,0.826 0.309,1.66 0.4,2.5c-0.089,0.697 -0.032,1.405 0.168,2.079c0,0.336 0,0.672 -0.021,0.966c-0.126,2.037 -0.315,3.633 -0.315,3.633c-0.065,0.12 -0.142,0.233 -0.231,0.336c-0.315,0.147 -0.588,0.315 -0.756,0.4c-0.5,0.294 -0.4,0.5 -0.4,0.5c-1.202,1.131 -1.638,2.866 -1.113,4.431c0.357,1.533 3.255,3.969 5.291,6.068c2.036,2.099 3,6.425 3.423,7.79c0.249,0.74 0.691,1.4 1.281,1.911c-0.154,0.088 -0.278,0.219 -0.357,0.378c-0.564,2.518 -0.957,5.072 -1.176,7.643c0.1,0.42 0.42,1.281 0.42,1.281c-0.111,0.486 0.022,0.996 0.357,1.365c0.567,0.609 1.386,1.386 1.386,1.386l-0.714,3.675c-0.253,0.257 -0.434,0.575 -0.525,0.924c-0.1,0.441 0.42,0.861 0.777,1.218c0.357,0.357 0.609,0.714 0.42,0.756c-0.21,0.042 -0.819,0.042 -0.756,0.609c0.042,0.567 -0.252,0.567 -0.819,0.861c-0.567,0.315 -0.147,1.071 -0.105,1.491c-0.003,0.371 -0.09,0.737 -0.252,1.071c-0.32,0.222 -0.628,0.461 -0.924,0.714c-0.322,0.568 -0.68,1.115 -1.071,1.638c-0.672,0.756 -6.824,8 -6.929,8c-0.384,0.044 -0.741,0.221 -1.008,0.5c-0.144,0.301 -0.209,0.633 -0.189,0.966l-1.134,0c-0.846,-0.328 -1.778,-0.363 -2.646,-0.1c-0.861,0.294 -1.113,1.176 -1.029,2.6c0.1,1.428 0.252,1.575 0.42,1.785c0.147,0.21 0.4,0.042 0.462,0.462c0.042,0.4 -0.357,1.827 -0.567,3.927c-0.047,1.552 0.232,3.097 0.819,4.535c0.587,1.438 0.252,0.315 1.176,0.315c0.924,0 0.966,-0.357 0.966,-0.357c0.058,-1.002 0.3,-1.985 0.714,-2.9c0.486,-1.075 1.195,-2.034 2.079,-2.814" style="fill:#fff;fill-rule:nonzero;"/></svg>
